<svg width="145" height="38" viewBox="0 0 145 38" fill="none" xmlns="http://www.w3.org/2000/svg">
<g filter="url(#filter0_dd_12_34420)">
<rect x="3.1" y="2.1" width="31.8" height="31.8" rx="7.9" fill="white"/>
<rect x="3.1" y="2.1" width="31.8" height="31.8" rx="7.9" fill="url(#paint0_linear_12_34420)"/>
<rect x="3.1" y="2.1" width="31.8" height="31.8" rx="7.9" stroke="#D0D5DD" stroke-width="0.2"/>
<path d="M30 18.5C30 24.6437 25.0569 29.5909 19 29.5909C12.9431 29.5909 8 24.6437 8 18.5C8 12.3563 12.9431 7.40909 19 7.40909C25.0569 7.40909 30 12.3563 30 18.5Z" stroke="#155EEF" stroke-width="6"/>
<g filter="url(#filter1_b_12_34420)">
<path d="M3 18H35V21.2C35 25.6804 35 27.9206 34.1281 29.6319C33.3611 31.1372 32.1372 32.3611 30.6319 33.1281C28.9206 34 26.6804 34 22.2 34H15.8C11.3196 34 9.07937 34 7.36808 33.1281C5.86278 32.3611 4.63893 31.1372 3.87195 29.6319C3 27.9206 3 25.6804 3 21.2V18Z" fill="white" fill-opacity="0.2"/>
</g>
</g>
<path d="M44.517 26V8.54544H51.5057C52.7898 8.54544 53.8608 8.73578 54.7187 9.11646C55.5767 9.49715 56.2216 10.0256 56.6534 10.7017C57.0852 11.3721 57.3011 12.1449 57.3011 13.0199C57.3011 13.7017 57.1648 14.3011 56.892 14.8182C56.6193 15.3295 56.2443 15.75 55.767 16.0795C55.2954 16.4034 54.7557 16.6335 54.1477 16.7699V16.9403C54.8125 16.9687 55.4346 17.1562 56.0142 17.5028C56.5994 17.8494 57.0738 18.3352 57.4375 18.9602C57.8011 19.5795 57.9829 20.3182 57.9829 21.1761C57.9829 22.1023 57.7528 22.929 57.2926 23.6562C56.8381 24.3778 56.1648 24.9489 55.2727 25.3693C54.3807 25.7898 53.2812 26 51.9744 26H44.517ZM48.2074 22.9829H51.2159C52.2443 22.9829 52.9943 22.7869 53.4659 22.3949C53.9375 21.9971 54.1733 21.4687 54.1733 20.8096C54.1733 20.3267 54.0568 19.9006 53.8238 19.5312C53.5909 19.1619 53.2585 18.8721 52.8267 18.6619C52.4006 18.4517 51.892 18.3466 51.3011 18.3466H48.2074V22.9829ZM48.2074 15.8494H50.9432C51.4488 15.8494 51.8977 15.7614 52.2898 15.5852C52.6875 15.4034 53 15.1477 53.2273 14.8182C53.4602 14.4886 53.5767 14.0937 53.5767 13.6335C53.5767 13.0028 53.3523 12.4943 52.9034 12.1079C52.4602 11.7216 51.8295 11.5284 51.0113 11.5284H48.2074V15.8494Z" fill="black"/>
<path d="M60.316 26V12.9091H63.8359V15.1932H63.9723C64.2109 14.3807 64.6115 13.767 65.174 13.3523C65.7365 12.9318 66.3842 12.7216 67.1172 12.7216C67.299 12.7216 67.495 12.7329 67.7052 12.7557C67.9155 12.7784 68.1001 12.8096 68.2592 12.8494V16.071C68.0888 16.0199 67.853 15.9744 67.5518 15.9346C67.2507 15.8949 66.9751 15.875 66.7251 15.875C66.191 15.875 65.7138 15.9915 65.2933 16.2244C64.8785 16.4517 64.549 16.7699 64.3047 17.179C64.066 17.5881 63.9467 18.0596 63.9467 18.5937V26H60.316Z" fill="black"/>
<path d="M75.4929 26.2557C74.1463 26.2557 72.9872 25.9829 72.0156 25.4375C71.0497 24.8864 70.3054 24.1079 69.7827 23.1023C69.2599 22.0909 68.9986 20.8949 68.9986 19.5142C68.9986 18.1676 69.2599 16.9858 69.7827 15.9687C70.3054 14.9517 71.0412 14.1591 71.99 13.5909C72.9446 13.0227 74.0639 12.7386 75.348 12.7386C76.2116 12.7386 77.0156 12.8778 77.7599 13.1562C78.5099 13.429 79.1633 13.8409 79.7202 14.392C80.2827 14.9432 80.7202 15.6363 81.0327 16.4716C81.3452 17.3011 81.5014 18.2727 81.5014 19.3864V20.3835H70.4474V18.1335H78.0838C78.0838 17.6108 77.9702 17.1477 77.7429 16.7443C77.5156 16.3409 77.2003 16.0256 76.7969 15.7983C76.3991 15.5653 75.9361 15.4489 75.4077 15.4489C74.8565 15.4489 74.3679 15.5767 73.9417 15.8324C73.5213 16.0824 73.1917 16.4204 72.9531 16.8466C72.7145 17.267 72.5923 17.7358 72.5866 18.2528V20.392C72.5866 21.0398 72.7059 21.5994 72.9446 22.071C73.1889 22.5426 73.5327 22.9062 73.9758 23.1619C74.419 23.4176 74.9446 23.5454 75.5525 23.5454C75.9559 23.5454 76.3253 23.4886 76.6605 23.375C76.9957 23.2614 77.2827 23.0909 77.5213 22.8636C77.7599 22.6363 77.9417 22.3579 78.0667 22.0284L81.4247 22.25C81.2542 23.0568 80.9048 23.7613 80.3764 24.3636C79.8537 24.9602 79.1775 25.4261 78.348 25.7614C77.5241 26.0909 76.5724 26.2557 75.4929 26.2557Z" fill="black"/>
<path d="M87.5014 8.54544V26H83.8707V8.54544H87.5014Z" fill="black"/>
<path d="M94.0405 8.54544V26H90.4098V8.54544H94.0405Z" fill="black"/>
<path d="M102.864 26.2557C101.54 26.2557 100.395 25.9744 99.429 25.4119C98.4687 24.8437 97.7273 24.054 97.2045 23.0426C96.6818 22.0256 96.4204 20.8466 96.4204 19.5057C96.4204 18.1534 96.6818 16.9716 97.2045 15.9602C97.7273 14.9432 98.4687 14.1534 99.429 13.5909C100.395 13.0227 101.54 12.7386 102.864 12.7386C104.187 12.7386 105.33 13.0227 106.29 13.5909C107.256 14.1534 108 14.9432 108.523 15.9602C109.045 16.9716 109.307 18.1534 109.307 19.5057C109.307 20.8466 109.045 22.0256 108.523 23.0426C108 24.054 107.256 24.8437 106.29 25.4119C105.33 25.9744 104.187 26.2557 102.864 26.2557ZM102.881 23.4432C103.483 23.4432 103.986 23.2727 104.389 22.9318C104.793 22.5852 105.097 22.1136 105.301 21.517C105.511 20.9204 105.616 20.2415 105.616 19.4801C105.616 18.7187 105.511 18.0398 105.301 17.4432C105.097 16.8466 104.793 16.375 104.389 16.0284C103.986 15.6818 103.483 15.5085 102.881 15.5085C102.273 15.5085 101.761 15.6818 101.347 16.0284C100.937 16.375 100.628 16.8466 100.418 17.4432C100.213 18.0398 100.111 18.7187 100.111 19.4801C100.111 20.2415 100.213 20.9204 100.418 21.517C100.628 22.1136 100.937 22.5852 101.347 22.9318C101.761 23.2727 102.273 23.4432 102.881 23.4432Z" fill="black"/>
<defs>
<filter id="filter0_dd_12_34420" x="0" y="0" width="38" height="38" filterUnits="userSpaceOnUse" color-interpolation-filters="sRGB">
<feFlood flood-opacity="0" result="BackgroundImageFix"/>
<feColorMatrix in="SourceAlpha" type="matrix" values="0 0 0 0 0 0 0 0 0 0 0 0 0 0 0 0 0 0 127 0" result="hardAlpha"/>
<feOffset dy="1"/>
<feGaussianBlur stdDeviation="1"/>
<feColorMatrix type="matrix" values="0 0 0 0 0.0627451 0 0 0 0 0.0941176 0 0 0 0 0.156863 0 0 0 0.06 0"/>
<feBlend mode="normal" in2="BackgroundImageFix" result="effect1_dropShadow_12_34420"/>
<feColorMatrix in="SourceAlpha" type="matrix" values="0 0 0 0 0 0 0 0 0 0 0 0 0 0 0 0 0 0 127 0" result="hardAlpha"/>
<feOffset dy="1"/>
<feGaussianBlur stdDeviation="1.5"/>
<feColorMatrix type="matrix" values="0 0 0 0 0.0627451 0 0 0 0 0.0941176 0 0 0 0 0.156863 0 0 0 0.1 0"/>
<feBlend mode="normal" in2="effect1_dropShadow_12_34420" result="effect2_dropShadow_12_34420"/>
<feBlend mode="normal" in="SourceGraphic" in2="effect2_dropShadow_12_34420" result="shape"/>
</filter>
<filter id="filter1_b_12_34420" x="-2" y="13" width="42" height="26" filterUnits="userSpaceOnUse" color-interpolation-filters="sRGB">
<feFlood flood-opacity="0" result="BackgroundImageFix"/>
<feGaussianBlur in="BackgroundImageFix" stdDeviation="2.5"/>
<feComposite in2="SourceAlpha" operator="in" result="effect1_backgroundBlur_12_34420"/>
<feBlend mode="normal" in="SourceGraphic" in2="effect1_backgroundBlur_12_34420" result="shape"/>
</filter>
<linearGradient id="paint0_linear_12_34420" x1="19" y1="2" x2="19" y2="34" gradientUnits="userSpaceOnUse">
<stop stop-color="white"/>
<stop offset="1" stop-color="#D0D5DD"/>
</linearGradient>
</defs>
</svg>
